<?xml version="1.0" encoding="utf-8"?>
<!-- Generator: Adobe Illustrator 24.2.0, SVG Export Plug-In . SVG Version: 6.00 Build 0)  -->
<svg version="1.1" id="Layer_1" xmlns="http://www.w3.org/2000/svg" xmlns:xlink="http://www.w3.org/1999/xlink" x="0px" y="0px"
	 viewBox="0 0 1000 1000" style="enable-background:new 0 0 1000 1000;" xml:space="preserve">
<style type="text/css">
	.st0{display:none;opacity:9.390311e-03;}
	.st1{display:inline;}
	.st2{fill:#E6E6E5;}
	.st3{fill:#7A7A7A;}
	.st4{fill:#3F3D55;}
	.st5{fill:#FFFFFF;}
	.st6{fill:#5FBF92;}
	.st7{display:none;opacity:0.4742;}
	.st8{fill:#4E4E4E;}
	.st9{fill:#757575;}
	.st10{display:none;opacity:1.087934e-02;}
	.st11{fill:#8B8A8A;}
	.st12{fill:#4F4F4F;}
	.st13{display:none;opacity:1.057603e-02;}
	.st14{display:none;opacity:1.012066e-02;}
	.st15{fill:#5E5F5F;}
	.st16{display:none;opacity:0.8114;}
	.st17{display:none;opacity:9.095758e-03;}
	.st18{display:none;}
	.st19{display:none;opacity:2.063961e-02;}
	.st20{fill:#343434;}
	.st21{fill:#8B8B8B;}
	.st22{fill:#3C3C3B;}
	.st23{fill:#151515;}
	.st24{fill:#3A3A39;}
	.st25{fill:#5791CD;}
	.st26{fill:#5891CD;}
	.st27{display:none;opacity:2.587139e-02;}
	.st28{fill:#E40B7A;}
	.st29{display:none;opacity:2.537146e-02;}
	.st30{fill:#EC1F6D;}
	.st31{display:none;opacity:2.517080e-02;}
	.st32{fill:#00A6C5;}
	.st33{display:none;opacity:1.973308e-03;}
	.st34{fill:#4786C6;}
	.st35{display:none;opacity:1;}
	.st36{fill:#6197D0;}
	.st37{display:none;opacity:2.397605e-02;}
</style>
<g>
	<g transform="matrix(0.6299999952316284,0,0,0.6299999952316284,-135.32937622070312,-10.194061279296875)" class="st19">
		<g transform="matrix(1,0,0,1,741.8179931640625,233.39300537109375)" class="st1">
			<path class="st20" d="M252.8,179.1l-2.6,9v261.8l2.6,2.7l121.1-71.8L252.8,179.1z"/>
		</g>
		<g transform="matrix(1,0,0,1,638.9840087890625,233.3939971923828)" class="st1">
			<path class="st21" d="M355.6,179.1L234.5,380.7l121.1,71.8V325.5V179.1z"/>
		</g>
		<g transform="matrix(1,0,0,1,742.343994140625,382.4119873046875)" class="st1">
			<path class="st22" d="M252.2,326.6l-1.5,1.8v93.3l1.5,4.4l121.2-171.3L252.2,326.6z"/>
		</g>
		<g transform="matrix(1,0,0,1,638.9840087890625,382.4110107421875)" class="st1">
			<path class="st21" d="M355.6,426v-99.5l-121.1-71.8L355.6,426z"/>
		</g>
		<g transform="matrix(1,0,0,1,742.9520263671875,296.239990234375)" class="st1">
			<path class="st23" d="M251.6,389.7l121.1-71.8l-121.1-55.2V389.7z"/>
		</g>
		<g transform="matrix(1,0,0,1,638.9840087890625,296.239013671875)" class="st1">
			<path class="st24" d="M234.5,317.9l121.1,71.8V262.7L234.5,317.9z"/>
		</g>
	</g>
	<g transform="matrix(0.38999998569488525,0,0,0.38999998569488525,15.647125244140625,179.59033203125)">
		<g transform="matrix(1,0,0,1,958.0390014648438,149.55299377441406)">
			<path class="st25" d="M-5.5,563.3L-34,666h-29.7l-39.8-150.2h32.6l23.6,108.8h0.8l28.1-108.8H8.3l28.1,108.8h0.8l23.7-108.8h32.6
				L53.6,666H24L-4.6,563.3H-5.5z M136.8,645.8c13.2,0,24.2-8.6,24.2-20.7v-8.1l-23.5,1.5c-11.3,0.8-17.8,5.9-17.8,13.8
				C119.6,640.6,126.5,645.8,136.8,645.8z M126.8,667.7c-21.2,0-37.4-13.7-37.4-33.8c0-20.3,15.6-32.1,43.4-33.7l28.1-1.7v-7.4
				c0-10.4-7.3-16.4-18.7-16.4c-11.3,0-18.5,5.6-20,13.8H94.5c1.1-21.7,19.6-36.5,49.1-36.5c28.6,0,47.3,14.8,47.3,37.3V666h-29.4
				v-17.1h-0.6C154.6,660.8,140.8,667.7,126.8,667.7z M211.2,515.7h30.4V666h-30.4V515.7z M262.8,515.7h30.4V666h-30.4V515.7z
				 M363.8,574.5c-13.3,0-22.9,10.1-23.9,24.1h47.4C386.6,584.2,377.3,574.5,363.8,574.5z M387.6,631.8h27.9
				c-3.3,21.9-23.3,36.5-50.9,36.5c-34.4,0-55-22-55-57.7c0-35.6,20.8-58.7,53.8-58.7c32.5,0,53,22,53,55.9v9.3h-76.9v1.9
				c0,15.9,10.1,26.9,25.6,26.9C376.3,645.9,384.8,640.4,387.6,631.8z M440.2,528.6h30.4v25.7h20.6v22.9h-20.6v53.4
				c0,8.5,4.2,12.6,13.1,12.6c2.7,0,5.5-0.2,7.4-0.5v22.4c-3.1,0.7-8.3,1.2-14.5,1.2c-26.2,0-36.4-8.7-36.4-30.5v-58.6h-15.7v-22.9
				h15.7V528.6z M576.9,668.6c-43.7,0-71.1-29.3-71.1-77.8c0-48.4,27.6-77.7,71.1-77.7c36.1,0,63.6,22.9,66,56.5h-30.6
				c-2.9-18.4-17.1-30.5-35.4-30.5c-23.7,0-39,19.9-39,51.5c0,32.1,15.1,51.8,39.1,51.8c18.6,0,32.1-10.9,35.4-28.7H643
				C639.4,647.3,613.7,668.6,576.9,668.6z M711,668.4c-33.7,0-55.3-21.7-55.3-58.3c0-36.1,21.9-58.1,55.3-58.1
				c33.4,0,55.3,21.9,55.3,58.1C766.2,646.8,744.7,668.4,711,668.4z M711,645.1c14.9,0,24.4-12.6,24.4-35c0-22.2-9.6-35-24.4-35
				c-14.8,0-24.5,12.8-24.5,35C686.5,632.5,696,645.1,711,645.1z M781.9,666V554.4h29.4v19.9h0.6c5.9-13.8,17.7-22,34.9-22
				c24.8,0,38.7,15.6,38.7,41.7V666H855v-65.6c0-14.6-6.9-22.9-20.5-22.9c-13.6,0-22.3,10-22.3,24.5v64H781.9z M904.7,666V554.4
				h29.4v19.9h0.6c5.9-13.8,17.7-22,34.9-22c24.8,0,38.7,15.6,38.7,41.7V666h-30.4v-65.6c0-14.6-6.9-22.9-20.5-22.9
				c-13.6,0-22.3,10-22.3,24.5v64H904.7z M1077.6,574.5c-13.3,0-22.9,10.1-23.9,24.1h47.4C1100.4,584.2,1091.2,574.5,1077.6,574.5z
				 M1101.5,631.8h27.9c-3.3,21.9-23.3,36.5-50.9,36.5c-34.4,0-55-22-55-57.7c0-35.6,20.8-58.7,53.8-58.7c32.5,0,53,22,53,55.9v9.3
				h-76.9v1.9c0,15.9,10.1,26.9,25.6,26.9C1090.1,645.9,1098.7,640.4,1101.5,631.8z M1247.3,595.9h-28.2
				c-1.8-11.8-9.6-20.1-22.1-20.1c-15,0-24.4,12.7-24.4,34.3c0,22,9.4,34.5,24.5,34.5c12.2,0,20.1-7.3,22-19.5h28.3
				c-1.6,26.3-21.2,43.3-50.6,43.3c-33.6,0-55-21.9-55-58.3c0-35.8,21.3-58.1,54.8-58.1C1226.8,552,1246,570.6,1247.3,595.9z
				 M1270.2,528.6h30.4v25.7h20.6v22.9h-20.6v53.4c0,8.5,4.2,12.6,13.1,12.6c2.7,0,5.5-0.2,7.4-0.5v22.4c-3.1,0.7-8.3,1.2-14.5,1.2
				c-26.2,0-36.4-8.7-36.4-30.5v-58.6h-15.7v-22.9h15.7V528.6z"/>
		</g>
		<g transform="matrix(1,0,0,1,194.28700256347656,119)">
			<path class="st26" d="M121.1,474.7c90.1-88.2,236.1-88.2,326.1,0l10.8,10.6c4.5,4.4,4.5,11.6,0,16L421,537.5
				c-2.3,2.2-5.9,2.2-8.2,0l-14.9-14.6c-62.8-61.5-164.7-61.5-227.5,0l-16,15.6c-2.3,2.2-5.9,2.2-8.2,0l-37.1-36.3
				c-4.5-4.4-4.5-11.6,0-16L121.1,474.7z M523.9,549.7l33,32.3c4.5,4.4,4.5,11.6,0,16L408.1,743.7c-4.5,4.4-11.8,4.4-16.3,0
				L286.2,640.3c-1.1-1.1-3-1.1-4.1,0L176.5,743.7c-4.5,4.4-11.8,4.4-16.3,0L11.4,598c-4.5-4.4-4.5-11.6,0-16l33-32.3
				c4.5-4.4,11.8-4.4,16.3,0l105.6,103.4c1.1,1.1,3,1.1,4.1,0L276,549.7c4.5-4.4,11.8-4.4,16.3,0l105.6,103.4c1.1,1.1,3,1.1,4.1,0
				l105.6-103.4C512.1,545.3,519.4,545.3,523.9,549.7z"/>
		</g>
	</g>
	<g transform="matrix(1.6299999952316284,0,0,1.6299999952316284,155.8493194580078,191.76559448242188)" class="st27">
		<g transform="matrix(1,0,0,1,86.01000213623047,20.88800048828125)" class="st1">
			<path class="st5" d="M65,127.4c-3.9,0-7.6,1.8-9.8,4.9c-2.6,3.2-4,7.3-4,11.5c-0.1,2.7,0.8,5.3,2.5,7.4c1.7,1.9,4.1,2.9,6.6,2.8
				c3.7,0,7.2-1.7,9.5-4.7c2.8-3.4,4.3-7.6,4.3-12c0.1-2.6-0.6-5.1-2.1-7.2C70.4,128.3,68.1,127.4,65,127.4z M65.2,147.1
				c-1.2,1.3-3,2-4.7,2c-1.2,0.1-2.4-0.5-3.1-1.4c-0.8-1.1-1.2-2.5-1.1-3.9c-0.1-3,0.7-5.9,2.4-8.3c1.3-2.1,3.6-3.4,6.1-3.3
				c2.8,0,4.2,1.7,4.2,5.1C69,140.9,67.6,144.4,65.2,147.1z M215.3,139.6c-1.2-0.4-2.5,0.2-3,1.3c-2.2,5.4-4.8,8.1-8.1,8.1
				c-1.7,0-2.6-1.5-2.6-4.3c0.2-3.2,0.7-6.3,1.4-9.4l0.7-3.3h6.7c1.1,0,2.1-0.8,2.3-1.9c0.3-1.3-0.6-2.6-1.9-2.8c-0.1,0-0.3,0-0.4,0
				h-5.5l1.1-5.4c0.3-1.4-0.6-2.7-1.9-3c-0.2,0-0.3-0.1-0.5-0.1c-1.2,0-2.2,0.8-2.4,1.9l-1.4,6.4h-15.5c-3.9,0-7.6,1.8-9.9,5
				c-2.6,3.2-4,7.3-4,11.5c0,1.1,0.1,2.2,0.4,3.3c-1,1.2-2.5,1.9-4,1.9c-0.8,0.1-1.6-0.2-2.1-0.9c-0.5-0.8-0.7-1.8-0.6-2.8
				c0.1-2.8,0.5-5.6,1.1-8.3l4-18.8c0.3-1.3-0.5-2.6-1.8-3c-1.3-0.3-2.6,0.5-3,1.8l-2.3,11.5c-1.6-1-3.5-1.5-5.4-1.5
				c-3.9-0.1-7.6,1.7-10.1,4.7c-2.7,3.3-4.2,7.5-4,11.8c0,1.4,0.2,2.7,0.5,4c-1,0.8-2.2,1.3-3.4,1.3c-0.8,0.1-1.7-0.2-2.2-0.9
				c-0.5-0.8-0.8-1.8-0.7-2.8c0.1-1.9,0.3-3.7,0.8-5.5c0.3-1.4-0.6-2.7-2-3c-0.1,0-0.1,0-0.2,0c-1.2-0.2-2.4,0.6-2.7,1.9
				c-0.6,2.7-1.8,5.2-3.4,7.4c-1.1,1.8-3,2.9-5.1,3c-1.1,0-2.1-0.6-2.6-1.6c-0.7-1.2-1.1-2.7-1-4.1c-0.1-2.9,0.7-5.8,2.4-8.1
				c1.4-2.1,3.8-3.3,6.4-3.3c1.3,0,2.5,0.3,3.7,0.8c0.7,0.3,1.6,0.3,2.2-0.2c1.1-0.7,1.5-2.1,0.8-3.3c-0.3-0.4-0.7-0.8-1.1-1
				c-0.6-0.3-1.3-0.5-1.9-0.6c-1.2-0.3-2.4-0.5-3.6-0.5c-3.9,0-7.5,1.7-10,4.7c-1.5,1.7-2.6,3.6-3.2,5.7c-2.4,7.6-5.5,11.4-9.2,11.4
				c-1.1,0.1-2.1-0.4-2.8-1.2c-0.6-0.9-0.9-1.9-0.9-3c0-0.3,0-0.7,0.1-1c2.2-0.9,4.2-2.4,5.7-4.3c1.4-1.8,2.2-4.1,2.2-6.4
				c0-3.9-2.1-5.8-6.4-5.8c-3,0-5.8,1.2-7.9,3.3l2.6-12.2c0.3-1.3-0.6-2.6-1.9-2.9c-0.2,0-0.3-0.1-0.5-0.1c-1.2,0-2.2,0.8-2.4,1.9
				l-7.2,33.7c-0.3,1.3,0.6,2.6,1.9,2.9c0.2,0,0.3,0.1,0.5,0.1c1.1,0,2.1-0.9,2.3-2l2.2-10.3c0.4-1.4,0.9-2.7,1.6-4
				c0.8-1.5,1.9-2.7,3.3-3.7c1.4-1.2,3.1-1.8,4.9-1.8c0.9-0.1,1.7,0.5,1.9,1.4c0,0.2,0,0.3,0,0.5c-0.1,1.6-1,3.1-2.3,4.1
				c-1.4,1.3-3.2,2.1-5,2.4c-0.2,1.5-0.2,2.6-0.2,3.2c-0.1,2.7,0.6,5.3,2.2,7.5c1.5,1.9,3.8,2.9,6.2,2.7c3.3,0,6.4-1.6,8.5-4.2
				l0.9-1.1c0.4,0.9,0.8,1.7,1.5,2.5c1.5,1.9,3.8,2.9,6.2,2.8c3.3,0,6.1-1.6,8.5-4.8c1,3.3,3.3,4.8,7.2,4.8c2.2,0,4.3-0.8,6-2.2
				c1.5,1.4,3.5,2.2,5.5,2.1c3.3,0,6.1-1.6,8.5-4.8c1,3.3,3.3,4.8,7.2,4.8c2.5,0,4.8-0.9,6.7-2.6c1.6,1.7,3.9,2.6,6.3,2.6
				c3.7,0,7.2-1.7,9.5-4.7c2.8-3.4,4.3-7.6,4.3-11.9c0-1.8-0.3-3.5-0.9-5.2h6.4l-0.6,2.8c-0.8,3.2-1.3,6.5-1.6,9.8
				c0,6,2.5,9.2,7.4,9.2c5.5,0,9.7-3.7,12.6-11.1c0.5-1.1,0-2.4-1.1-2.9C215.5,139.7,215.4,139.7,215.3,139.6z M160.3,136.7
				c-0.9,4.3-2.2,7.4-3.8,9.4c-1.6,2-3.4,3-5.3,3c-1.1,0-2.1-0.6-2.6-1.6c-0.7-1.2-1-2.6-1-4c-0.1-2.9,0.7-5.8,2.4-8.1
				c2.2-3.3,6.6-4.3,9.9-2.1c0.3,0.2,0.6,0.4,0.9,0.7L160.3,136.7z M187.3,142.5c-0.8,1.6-1.7,3.1-2.8,4.5c-1.2,1.3-2.9,2.1-4.7,2.1
				c-1.2,0.1-2.4-0.5-3.1-1.4c-0.8-1.1-1.2-2.5-1.1-3.9c-0.1-3,0.7-5.9,2.4-8.3c1.3-2.1,3.7-3.3,6.1-3.3c2.8,0,4.2,1.7,4.2,5.1
				C188.2,139.1,187.9,140.8,187.3,142.5L187.3,142.5z M86,115.3c-1.2,0-2.2,0.8-2.4,1.9L76.4,151c-0.3,1.3,0.6,2.6,1.9,2.9
				c0.2,0,0.3,0.1,0.5,0.1c1.2,0,2.2-0.8,2.4-1.9l7.2-33.7c0.3-1.3-0.6-2.7-2-2.9C86.3,115.4,86.2,115.3,86,115.3z M34.4,107.9
				c-9.7,0-17.6,7.9-17.7,17.7c0,2,0.3,3.9,0.9,5.7c0.5,1.3,1.8,1.9,3.1,1.6c1.2-0.5,1.9-1.8,1.5-3.1c-0.5-1.4-0.8-3-0.7-4.5
				c0.2-7,6.1-12.6,13.1-12.4c7,0.2,12.6,6.1,12.4,13.1c-0.2,6.6-5.4,12-12,12.4c0,0-2.5,0.2-3.7,0.3c-0.5,0.1-0.9,0.2-1.4,0.3
				c-0.1,0.1-0.2,0-0.2,0c0-0.1,0-0.1,0-0.2l0.4-2.1l2.3-10.5c0.3-1.3-0.6-2.6-1.9-2.9c-1.3-0.3-2.6,0.6-2.9,1.9
				c0,0-5.5,25.8-5.5,26c-0.3,1.3,0.5,2.5,1.7,2.8c0,0,0.1,0,0.1,0c1.3,0.3,2.5-0.5,2.8-1.7c0,0,0-0.1,0-0.1
				c0.1-0.3,0.8-3.7,0.8-3.7c0.5-2.6,2.6-4.6,5.2-4.9c0.5-0.1,2.8-0.2,2.8-0.2c9.7-0.9,16.9-9.5,16-19.2
				C50.9,115,43.4,108.1,34.4,107.9z"/>
		</g>
		<g transform="matrix(1,0,0,1,174.21600341796875,38.465999603271484)" class="st1">
			<path class="st28" d="M132.2,131c-1.6-0.3-3.2,0.7-3.5,2.3c0,0,0,0,0,0c-0.3,1.6,0.7,3.1,2.2,3.5c0,0,0.1,0,0.1,0
				c1.6,0.4,3.1-0.6,3.5-2.2c0-0.1,0-0.1,0-0.2C134.8,132.9,133.8,131.4,132.2,131z"/>
		</g>
	</g>
	<g transform="matrix(0.16099999845027924,0,0,0.16099999845027924,140.20750427246094,118.52912139892578)" class="st29">
		<g transform="matrix(1,0,0,1,1180.260009765625,95.81800079345703)" class="st1">
			<path class="st30" d="M1239,1219.8c-2.5,1.8-3.8,2.7-5.1,3.6c-10.5,7.3-21.1,14.6-31.6,21.8c-0.9,0.6-2.1,0.8-3.1,1.1
				c0.7-0.7,1.3-1.6,2.1-2.1c11.3-8.1,22.7-16.3,34-24.3C1235.7,1219.5,1236.8,1219.8,1239,1219.8z"/>
		</g>
		<g transform="matrix(1,0,0,1,1099.6199951171875,203.57400512695312)" class="st1">
			<path class="st30" d="M1200.6,1258.4c-0.7-0.1-0.9-0.2-1.1-0.2c0.1-0.5,0-1.1,0.3-1.5c3.6-4.5,7.4-8.9,11.1-13.4
				c0.2-0.2,0.5-0.3,0.8-0.5c0,0.2,0.2,0.4,0.2,0.5C1208.1,1248.5,1204.3,1253.5,1200.6,1258.4z"/>
		</g>
		<g transform="matrix(1,0,0,1,1121.1500244140625,171.7899932861328)" class="st1">
			<path class="st30" d="M1195.1,1261.7c-0.7-0.2-0.9-0.3-1.1-0.3c0.1-0.5,0.2-1.1,0.4-1.4c4.1-4.1,8.2-8.1,12.4-12.2
				c0.2-0.2,4.9-5.4,5.2-5.6c1.6-1.6,12.4-12.9,0.9,0C1208.7,1246.9,1199.3,1257.2,1195.1,1261.7z"/>
		</g>
		<g transform="matrix(1,0,0,1,1135.2900390625,133.91099548339844)" class="st1">
			<path class="st30" d="M1187.9,1262.1c2.7-3.6,13.1-14.5,28.2-29.1c4.3-3.9,11.7-10.8,16.1-14.6c0.2-0.2,2.7-2.1,3.1-2.2
				c0,0.2-2.1,2.3-2.1,2.4C1228.6,1223.1,1197.2,1250.6,1187.9,1262.1z"/>
		</g>
		<g transform="matrix(1,0,0,1,1099.6800537109375,228.00799560546875)" class="st1">
			<path class="st30" d="M1211,1247.8c-2.9,4.3-5.9,8.7-8.8,13.1c-0.2,0.4-1,0.5-1.5,0.7c0-0.4-0.2-0.9,0-1.1
				C1204,1256.2,1207.5,1252,1211,1247.8z"/>
		</g>
		<g transform="matrix(1,0,0,1,1048.14501953125,255.7169952392578)" class="st1">
			<path class="st30" d="M1201.8,1251.9c-2.5,4.6-4.9,9.3-7.4,13.9c-0.2,0.4-0.9,0.6-1.5,0.8c-0.1-0.4-0.3-0.9-0.2-1.1
				C1195.8,1261,1198.8,1256.4,1201.8,1251.9z"/>
		</g>
		<g transform="matrix(1,0,0,1,1552.5450439453125,971.0960083007812)" class="st1">
			<path class="st30" d="M1274.8,1377.9c1.4-0.4,2.7-0.9,4.1-1.1c2.4-0.3,4.8-0.3,7.1-0.5c-2.4,0.5-4.8,1.2-7.2,1.6
				C1277.5,1378.1,1276.1,1377.9,1274.8,1377.9L1274.8,1377.9z"/>
		</g>
		<g transform="matrix(1,0,0,1,1203.3349609375,80.88400268554688)" class="st1">
			<path class="st30" d="M1225.4,1229.1c-0.3,0.3-0.5,0.7-0.9,0.8c-1.3,0.7-2.7,1.3-4.1,2c0-0.3-0.1-0.9,0-1
				c1.6-0.8,3.1-1.5,4.7-2.2C1225.2,1228.9,1225.3,1229.1,1225.4,1229.1z"/>
		</g>
		<g transform="matrix(1,0,0,1,1158.97998046875,111.17900085449219)" class="st1">
			<path class="st30" d="M1214.1,1238.1c-0.8-1-1-1.3-1-1.3c1.4-1.3,2.8-2.7,4.3-4c0,0,0.5,0.4,0.5,0.5
				C1216.8,1234.8,1215.5,1236.3,1214.1,1238.1z"/>
		</g>
		<g transform="matrix(1,0,0,1,1110.875,214.61599731445312)" class="st1">
			<path class="st30" d="M1210,1251c-1.6,1.3-2.9,2.4-4.3,3.5c-0.2-0.2-0.5-0.6-0.5-0.6c1.3-1.1,2.6-2.3,3.9-3.3
				C1209.1,1250.5,1209.4,1250.7,1210,1251z"/>
		</g>
		<g transform="matrix(1,0,0,1,1129.5150146484375,184.73300170898438)" class="st1">
			<path class="st30" d="M1208.6,1249.3c0.5-0.5,1-0.9,1.4-1.3c0.8-0.7,1.6-1.3,2.4-2c0.1,0.1,0.2,0.2,0.3,0.3
				C1211.4,1247.2,1210,1248.2,1208.6,1249.3z"/>
		</g>
		<g transform="matrix(1,0,0,1,1090.7550048828125,200.2729949951172)" class="st1">
			<path class="st30" d="M1203.3,1250.5c0.6-0.5,1-0.9,1.5-1.3c0.1,0.2,0.4,0.4,0.3,0.5c-0.4,0.5-0.8,0.9-1.2,1.3
				C1203.9,1251,1203.6,1250.8,1203.3,1250.5z"/>
		</g>
		<g transform="matrix(1,0,0,1,1162.72998046875,153.7550048828125)" class="st1">
			<path class="st30" d="M1216.3,1241.4c0.5,0,1-0.1,1.5-0.1c-1.1,0.8-2.2,1.6-3.3,2.4C1215.1,1242.9,1215.7,1242.1,1216.3,1241.4z"
				/>
		</g>
		<g transform="matrix(1,0,0,1,1114.97998046875,844.1240234375)" class="st1">
			<path class="st30" d="M1207,1354.9c0.9,0.9,1.7,1.8,2.6,2.8C1208.7,1356.8,1207.8,1355.8,1207,1354.9z"/>
		</g>
		<g transform="matrix(1,0,0,1,1039.344970703125,257.4989929199219)" class="st1">
			<path class="st30" d="M1197.5,1256.5c-0.4,0.5-2.7,5.8-2.9,6.2c-0.1-0.3-0.4-0.6-0.3-0.8
				C1194.4,1261.5,1197.2,1256.8,1197.5,1256.5z"/>
		</g>
		<g transform="matrix(1,0,0,1,1104.574951171875,213.03799438476562)" class="st1">
			<path class="st30" d="M1205.4,1252.9c0.8-0.4,1.5-0.8,2.3-1.3C1207,1252,1206.2,1252.4,1205.4,1252.9z"/>
		</g>
		<g transform="matrix(1,0,0,1,1206.7650146484375,78.84100341796875)" class="st1">
			<path class="st30" d="M1225.1,1229.3c-1,0.6-2.1,1.3-3.1,1.9c-0.1-0.1-0.2-0.2-0.2-0.3c1-0.6,2.1-1.3,3.1-1.9
				C1224.9,1229.1,1225,1229.2,1225.1,1229.3z"/>
		</g>
		<g transform="matrix(1,0,0,1,1150.6199951171875,173.70799255371094)" class="st1">
			<path class="st30" d="M1214,1245.2c0.5,0,1-0.1,1.5-0.1c-0.9,0.4-1.8,0.8-2.7,1.3C1213.2,1246,1213.6,1245.6,1214,1245.2z"/>
		</g>
		<g transform="matrix(1,0,0,1,1077.7449951171875,793.4249877929688)" class="st1">
			<path class="st30" d="M1202.7,1349c-0.5-0.6-1-1.3-1.5-1.9c0.2,0,0.5-0.2,0.5-0.1c0.4,0.6,0.8,1.2,1.2,1.7
				C1202.9,1348.8,1202.8,1348.9,1202.7,1349z"/>
		</g>
		<g transform="matrix(1,0,0,1,1104.864990234375,221.39100646972656)" class="st1">
			<path class="st30" d="M1205.9,1254.5c0.3-0.6,0.7-1.2,1-1.7c0.2,0.1,0.3,0.2,0.5,0.4C1206.8,1253.5,1206.3,1254,1205.9,1254.5
				C1205.8,1254.4,1205.9,1254.5,1205.9,1254.5z"/>
		</g>
		<g transform="matrix(1,0,0,1,1546.0889892578125,971.9210205078125)" class="st1">
			<path class="st30" d="M1281.2,1377.1c-1.3,0.2-2.6,0.4-3.8,0.6l0.1,0C1278.7,1377.5,1280,1377.3,1281.2,1377.1L1281.2,1377.1z"/>
		</g>
		<g transform="matrix(1,0,0,1,1268.0899658203125,970.593994140625)" class="st1">
			<path class="st30" d="M1239.5,1379c2.1,0.8,4.2,1.7,6.3,2.5c0.4,0.4,0.8,0.8,1.2,1.3l0,0c-9-3.8-18-7.5-27-11.3
				C1226.5,1374,1232.9,1376.5,1239.5,1379z"/>
		</g>
		<g transform="matrix(1,0,0,1,1069.3349609375,807.8410034179688)" class="st1">
			<path class="st30" d="M1200.3,1349c0.3,0.9,0.6,1.8,0.9,2.7C1200.8,1350.8,1200.6,1349.9,1200.3,1349z"/>
		</g>
		<g transform="matrix(1,0,0,1,1496.385009765625,35.150001525878906)" class="st1">
			<path class="st30" d="M1351.2,1227.4c-0.2,0-0.4-0.1-0.7-0.1c-5-0.6-15.4,3.8-54.8-6.6c-4.6-1.2-8.7-2.2-12.4-2.9
				c-7.9-0.8-15.7-1.4-23.2-1.8c-10,0.8-15.8,3.7-29.3,2.2c-7.4-0.8-14.9,0.2-20.9,1.6c-13.1,3.1-19,8.1,0,0
				c0.3-0.1,0.5-0.2,0.8-0.3c9.4-4,28-4.6,49.4-3.4c5.7-0.4,12.7-0.2,23.2,1.8c24.9,2.5,50.3,6.4,67.2,9.5
				C1350.8,1227.3,1351,1227.3,1351.2,1227.4z"/>
		</g>
		<g transform="matrix(1,0,0,1,1499.22998046875,506)" class="st1">
			<path class="st30" d="M1722.7,1651.1c1.8-2.4,3.7-4.8,5.5-7.2c1.1-1.7,2.3-3.4,3.4-5v0c2-3,4-6,6.1-9.1c1.2-1.9,2.6-3.7,4-5.5v0
				c1.5-2,3-4,4.3-6.1c4.3-6.9,8.7-13.8,12.5-21c1.6-2.9,3.1-5.7,4.7-8.6v0v0l0,0c6.2-11.2,12.4-22.5,17.8-34.1
				c4.8-10.2,8.8-20.8,12.9-31.3v0v0c1.6-4.1,3.1-8.1,4.7-12.2c0.5-1.3,1-2.5,1.5-3.8v0v0v0c2.4-6,4.8-12,6.8-18.2
				c4.1-13,7.8-26.1,11.3-39.3c0.2-0.7,0.3-1.3,0.5-2l0.3-1.2c3.5-13.3,7.1-26.6,9.7-40.2c2.6-13,4.3-26.2,5.7-39.5
				c1.3-13,2.5-26.1,2.6-39.1c0-5.6,0.1-11.4,0.2-17.3v0v0v0v0c0.2-11.9,0.4-24.1,0-35.6c-0.4-4.4-0.6-8.9-0.9-13.3v0
				c-0.6-9.5-1.2-19-2.6-28.4c-3.8-25.1-8.6-50-13.4-75c-14.5-75.1-51.5-144.3-97.6-204.6c-39.5-51.4-82.9-96.8-136.8-133.7
				c-77.5-52.9-158.9-87.5-252.9-101.2c-15.8-2.3-31.7-3.8-47.6-5.4c-3.7-0.4-7.4-0.7-11.2-1.1c-4.9-0.5-9.8-0.7-14.6-0.9
				c-2.3-0.1-4.6-0.2-6.8-0.3h-6.9h-4.4h-1.9c-1,0.4-2.1,0.8-3.2,1c-0.2,0-0.4-0.1-0.6-0.2c-0.1,0-0.2-0.1-0.3-0.1
				c0.2-0.1,0.3-0.2,0.5-0.4c0.2-0.1,0.3-0.2,0.5-0.4h-3.1c-2.4,0.2-4.9,0.3-7.3,0.5c-3.6,0.2-7.3,0.5-10.9,0.7
				c-11.6,0.9-23.2,1.9-34.8,2.9c-2.4,0.2-4.8,0.4-7.2,0.6c-7.6,0.6-15.2,1.2-22.8,2.4c-11.7,1.8-23.4,4-34.9,6.7
				c-15.6,3.7-31,7.9-46.4,12.4c-3.7,1.1-7.3,2.7-10.9,4.3c-2.7,1.2-5.5,2.5-8.3,3.5c-3.9,1.4-8,2.6-12,3.8
				c-3.1,0.9-6.1,1.8-9.1,2.8c-0.7,0.3-1.4,0.9-2,1.5c-0.6,0.6-1.2,1.2-1.9,1.5c-3.4,1.4-6.9,2.8-10.4,4.1v0
				c-5.3,2.1-10.6,4.1-15.8,6.4c-9.5,4.2-18.8,8.9-27.9,13.7c-11.4,6-22.8,12.4-34.1,18.7c-1.2,0.6-2.1,1.7-3,2.7v0
				c-0.4,0.5-0.9,1-1.4,1.5c0.1,0.1,0.2,0.1,0.2,0.2c0,0,0.1,0.1,0.1,0.1c5.1-2.6,10.1-5.3,15.2-8c9.9-5.2,19.8-10.4,29.8-15.3
				c11-5.3,22.1-10.3,33.3-15.2h0c4.5-2,9-4,13.5-6.1c1.5-0.7,3-1.4,4.6-2.1c4.2-2,8.4-4,12.8-5.3c3.3-1,6.8-1.7,10.2-2.4
				c4.4-0.9,8.8-1.7,13-3.3l0.7-0.3l0.7-0.3c7.7-3,15.2-5.9,23.4-7.4c7.4-1.3,14.6-3.1,21.9-4.8c4.5-1.1,9-2.1,13.5-3.1
				c1.5-0.3,3.1-0.4,4.6-0.4c1.5,0,3-0.1,4.5-0.4c3.1-0.6,6.1-1.4,9.2-2.1c5.1-1.2,10.1-2.5,15.3-3.1c10.6-1.3,21.4-1.8,32.1-2.4
				c1.8-0.1,3.6-0.2,5.4-0.3c6.2-0.3,12.5-0.5,18.7-0.6c3.1-0.1,6.2-0.1,9.4-0.2c1.4,0,2.8-0.1,4.2-0.1c4.2-0.1,8.3-0.3,12.5-0.3
				c2.4,0,4.8,0.1,7.2,0.3c2.2,0.1,4.4,0.2,6.5,0.2c2.1,0,4.2,0,6.3-0.1c3.1-0.1,6.1-0.2,9.2,0c13.5,0.9,27,2.1,40.6,3.3
				c1.2,0.1,2.3,0.5,3.4,1c0.5,0.2,0.9,0.4,1.4,0.5c-0.5,0-1.1,0-1.6,0.1c-1.1,0-2.1,0.1-3.2,0.1c-1.3,0-2.7,0-4,0
				c-3.9-0.2-7.8-0.4-11.8-0.6c-7.8-0.4-15.6-0.8-23.4-0.9c-4-0.1-8-0.1-12-0.1c0.2,0,0.4-0.1,0.6-0.1c0.2,0,0.4-0.1,0.6-0.1
				c-0.2-0.1-0.5-0.2-0.7-0.3c-0.5-0.3-1-0.5-1.5-0.5c-2.9-0.1-5.7-0.2-8.6-0.3c-7.7-0.3-15.4-0.6-23-0.4
				c-15.4,0.5-30.9,1.3-46.2,2.7c-6.4,0.6-12.7,1.8-19,3c-2.8,0.6-5.7,1.1-8.5,1.6c-2.2,0.4-4.4,0.8-6.5,1.2l0,0
				c-4.8,0.9-9.6,1.7-14.5,2.6c-4.6,0.8-9.3,1.7-14,2.5c-11.9,2.1-23.8,4.2-35.5,6.8c-8.9,2-17.5,5.3-26,8.6
				c-10.6,4.2-21.2,8.5-31.8,12.8l0,0c-5.9,2.4-11.8,4.8-17.7,7.2c-2.9,1.2-5.8,2.2-8.7,3.3c-5.4,2-10.8,4-15.9,6.5
				c-13.7,6.7-27.1,13.8-40.3,21.3c-14.9,8.5-29.8,17.2-44.1,26.8c-4.7,3.1-8.7,7.3-12.8,11.5c-1.8,1.9-3.6,3.8-5.5,5.6
				c-0.5,0.5-1,1.1-1.6,1.6c-0.5,0.5-1,1.1-1.6,1.6c-1.4,1.2-2.9,2.4-4.3,3.6l0,0v0c-3.3,2.8-6.6,5.6-9.9,8.3c-2.5,2-5,4-7.5,6v0
				c-4.9,3.8-9.8,7.7-14.5,11.8c-2.5,2.2-4.5,4.9-6.6,7.5c-1.4,1.8-2.7,3.5-4.2,5.1c-3.9,4.2-7.9,8.4-11.9,12.5v0l0,0v0v0
				c-1.8,1.9-3.6,3.8-5.4,5.7c0,0.2,0,0.4,0,0.6v0c0,0.4,0,0.8,0,1.2c0,0.1-0.3,0.2-0.6,0.2c-0.1,0-0.2,0-0.3,0.1
				c0.1-0.3,0.2-0.6,0.3-0.8v0c0.1-0.3,0.2-0.6,0.3-0.8c-1.8,2-3.7,4.1-5.6,6.1c0.4-0.3,0.8-0.6,1.2-0.9c0.2-0.1,0.3-0.3,0.5-0.4
				l0.2,0.4c-0.3,0.2-0.6,0.4-1,0.6c-0.3,0.2-0.7,0.4-1,0.6c-0.9,1.1-1.7,2.3-2.6,3.4c-2,2.7-3.9,5.4-6.2,7.9
				c-2.9,3.3-5.9,6.5-8.8,9.7c-4.8,5.1-9.6,10.3-14,15.7c-3.1,3.7-5.7,7.9-8.2,12.1v0c-1.4,2.3-2.8,4.6-4.3,6.8
				c-3.7,5.6-7.6,11.4-11.4,17.2l0,0c-3.8,5.8-7.7,11.6-11.4,17.2c2.4-3.4,5.3-6.8,8.3-10.2c2.5-2.9,5-5.8,7.1-8.6
				c6.5-8.7,13.2-17.3,20-25.8c3.8-4.8,7.9-9.3,11.9-13.9v0l0,0v0v0v0c1.2-1.4,2.5-2.8,3.7-4.2c0.3-0.4,0.8-0.6,1.3-0.8
				c0.2-0.1,0.4-0.2,0.7-0.3c-0.1,0.3-0.1,0.5-0.2,0.8c-0.1,0.6-0.2,1.1-0.5,1.4c-0.7,0.7-1.5,1.4-2.2,2.1c-1.1,1-2.2,2-3.1,3.2
				c-5.8,7.8-11.6,15.7-17.2,23.7c-3.1,4.4-5.7,8.8-8.4,13.2v0c-2.2,3.7-4.4,7.4-6.9,11.1l-0.1,0.2c-0.1,0.1-0.1,0.1-0.1,0.2
				l-0.1,0.1l-0.1,0.1c-0.2,0.2-0.5,0.7-1.4,2v0l0,0v0c0.4-0.4,0.6-0.6,0.9-0.8c0.2-0.2,0.5-0.4,0.9-0.9v0c0.7-1,1.5-2.1,2.2-3.1
				c3-4.3,6-8.6,9.3-12.7c2.9-3.7,5.7-7.4,8.6-11.1v0v0v0v0c9-11.7,18.1-23.5,27.9-34.6c13.5-15.2,27.9-29.6,42.3-44
				c1.2-1.2,2.3-2.3,3.5-3.5c9.5-9.5,19.6-18.5,29.8-27.3c3.4-2.9,7.2-5.5,11-8v0v0c2.2-1.4,4.3-2.9,6.4-4.4c2.7-2,5.4-4,8-6
				c4.5-3.5,9.1-6.9,13.8-10c6.4-4.2,13-8.2,19.6-12.1c4.5-2.7,9.1-5.5,13.6-8.3c21.5-13.4,44.1-24.7,67.7-34
				c2.9-1.1,5.7-2.3,8.6-3.5v0c10.2-4.1,20.4-8.2,30.8-11.8c12-4.1,24.1-7.6,36.3-11.2l0,0c1.9-0.6,3.8-1.1,5.7-1.7
				c6.9-2,13.8-3.9,20.9-5.2c4.4-0.8,8.8-1.3,13.3-1.9c3.8-0.5,7.6-0.9,11.4-1.5c2.9-0.5,5.7-1.1,8.5-1.8c3.3-0.8,6.6-1.6,9.9-2
				c9-1.2,18.1-2.1,27.1-3c3.7-0.4,7.5-0.8,11.2-1.2c1-0.1,2.1-0.2,3.1-0.4c3.1-0.4,6.1-0.8,9.2-0.8c5.4-0.1,10.7,0.1,16.1,0.2
				c3.2,0.1,6.4,0.1,9.6,0.2c3.5,0,7,0,10.5,0.1c8.7,0,17.4,0.1,26.2,0.2c1.3,0,2.7,0.5,4,1c0.5,0.2,1,0.4,1.5,0.5
				c-1.3,0.1-2.6,0.1-3.8,0.2c-3,0.2-6,0.3-9.1,0.3c-1.6,0-3.3-0.3-4.9-0.5c-2-0.3-4-0.6-5.9-0.5c-12.2,0.4-24.4,1-36.6,1.6
				c-1.8,0.1-3.6,0.2-5.5,0.3c-1.8,0.1-3.7,0.2-5.5,0.3c-8.6,0.4-17.2,0.9-25.8,1.7c-4.9,0.5-9.7,1.3-14.5,2.1
				c-3.4,0.6-6.9,1.2-10.4,1.6c-2.7,0.3-5.5,0.6-8.2,0.8c-4.2,0.3-8.4,0.7-12.5,1.5c-4,0.8-7.9,2-11.7,3.1c-2.6,0.8-5.2,1.6-7.8,2.3
				c-3.5,0.9-7,1.6-10.5,2.4c-6.3,1.3-12.6,2.7-18.7,4.8c-2.2,0.8-4.4,1.6-6.6,2.3c-23.6,8.3-47.2,16.6-70.2,26.5
				c-14.9,6.4-29.2,14.3-43.5,22.1c-4.3,2.3-8.5,4.7-12.8,7c-8.8,4.7-17.4,10-25.7,15.6c-10.2,6.8-20.2,14-30.1,21.4
				c-8.6,6.4-17,13.2-25.1,20.1c-5.3,4.5-10.3,9.3-15.4,14.1v0c-1.9,1.8-3.8,3.6-5.8,5.4c-0.6,0.6-1.1,1.3-1.6,2
				c-0.2,0.3-0.4,0.6-0.6,0.9c0.3-0.2,0.6-0.4,1-0.5c0.8-0.4,1.6-0.8,2.3-1.4c4.9-4.2,9.8-8.5,14.7-12.8v0c3-2.6,5.9-5.2,8.9-7.8
				c0.5-0.4,1.1-0.6,1.7-0.8c0.3-0.1,0.5-0.2,0.7-0.3c-0.2,0.2-0.3,0.5-0.5,0.7c-0.3,0.5-0.6,0.9-1,1.3c-3.5,3.2-7,6.4-10.5,9.6v0v0
				v0l0,0c-6.8,6.1-13.6,12.3-20.2,18.7c-8.9,8.6-17.5,17.6-26.1,26.5v0l0,0v0v0c-2.9,3-5.7,5.9-8.6,8.9c-0.4,0.4-0.6,0.9-0.9,1.4
				c-0.1,0.3-0.3,0.5-0.4,0.8c0.3-0.2,0.5-0.3,0.8-0.5c0.5-0.3,1-0.6,1.4-1c2.5-2.5,4.9-4.9,7.3-7.4c3.9-4,7.8-8,11.8-11.9l1.4-1.3
				c10.2-9.8,20.4-19.7,31-29c7.1-6.3,14.5-12.2,21.8-18.2l0,0c3.3-2.6,6.5-5.3,9.7-7.9c0.3-0.3,0.8-0.4,1.2-0.5
				c0.2-0.1,0.5-0.1,0.7-0.2c-0.1,0.2-0.2,0.5-0.4,0.7c-0.2,0.5-0.4,0.9-0.8,1.2c-3.2,2.7-6.4,5.3-9.6,7.9v0v0h0v0
				c-6.6,5.4-13.2,10.8-19.5,16.5c-11.2,10.1-22.1,20.5-32.6,31.3c-8.8,9-17.1,18.4-25.4,27.8c-1.7,1.9-3.4,3.9-5.2,5.8
				c-1,1.2-1.7,2.6-2.4,4c-0.5,1.1-1.1,2.3-1.8,3.3c-1,1.4-2.1,2.9-3.1,4.3l0,0c-22,30.6-44,61.4-59.7,95.9
				c-2.6,5.7-14.3,37.3-11.3,31.4c11.4-24.6,23.6-49.9,38.2-72.8c21.3-33.4,43.7-63.7,71.3-89.9c0.2-0.2,0.5-0.4,0.7-0.7v0
				c0.2-0.2,0.5-0.4,0.7-0.7l2-2.9c0.1,0.3,0.2,0.5,0.4,0.8c0.1,0.1,0.1,0.2,0.2,0.2c0,0,0.1,0.1,0.1,0.1c1.6-1.6,3.1-3.2,4.7-4.7
				l0,0c4.7-4.7,9.4-9.5,14.2-14.1c3.8-3.7,7.7-7.2,11.7-10.8l0,0v0l0,0c1.4-1.3,2.9-2.6,4.3-3.9c0.4-0.5,0.8-1,1.2-1.5v0
				c0.2-0.3,0.4-0.5,0.6-0.8c0.3-0.3,0.6-0.6,0.9-0.9c0.3-0.3,0.6-0.6,0.9-0.9c-0.1,0.4-0.1,0.9-0.2,1.3v0.1
				c0.6-0.4,1.2-0.8,1.8-1.2c5.6-4.2,11.1-8.4,16.6-12.6v0c13.5-10.2,26.9-20.5,40.9-30c14.2-9.8,29.5-18.1,44.8-26.3
				c13.8-7.4,27.8-14.4,42.2-20.3c17.2-7.1,34.8-13.4,52.5-18.9c19-5.8,38.3-11,57.8-15c50.7-10.1,101.9-12.5,153.5-8
				c43.1,3.8,85.2,12.2,126.3,25.8c14.1,4.7,27.9,9.9,41.4,15.7c-11.4-4.7-23-8.9-35-12.4c-2-0.7-4.2-1.5-6.4-2.3v0
				c-2.2-0.8-4.3-1.6-6.4-2.3c-3.7-1.2-8.1-2.6-11.8-3.6c-3.3-0.9-6.7-1.9-10.2-2.9c-7.8-2.3-15.8-4.6-23.5-6.2
				c-14.1-3-32.2-6.6-46.4-8.2c-23-2.6-39.1-3.6-63.7-4.5c-2,0-4.4,0-6.9,0c-5.5,0-11.6-0.1-15.9,0c-9.4,0.2-14.7,0.7-23.8,1.6
				l-0.6,0.1c-17.1,1.7-34.1,3.7-51.1,6.3c-15.9,2.4-31.7,5.5-47.4,8.7c-2.7,0.5-5.2,1.6-7.8,2.7c-1.8,0.8-3.6,1.6-5.5,2.1
				c-4,1.3-8.1,2.4-12.1,3.6c-7.2,2.1-14.4,4.1-21.4,6.8c-16.6,6.2-32.9,13-49.1,20.3c-14,6.3-27.8,13.3-41.3,20.8
				c-9,5-17.7,10.7-26.4,16.4v0c-2.4,1.6-4.7,3.1-7.1,4.7c-3.1,2-5.9,4.2-8.8,6.4v0c-1.1,0.8-2.1,1.6-3.2,2.4
				c-4.3,3.2-8.5,6.4-12.8,9.6l0,0l0,0l0,0v0l0,0c-4.2,3.2-8.5,6.4-12.7,9.6c-1.8,1.3-3.6,2.6-5.4,3.9c-3.8,2.7-7.6,5.3-10.9,8.5
				c-11,10.2-21.8,20.8-32.6,31.3v0l0,0c-1.7,1.7-3.4,3.3-5.1,5c-5.5,5.4-10.8,10.9-16,16.6c-2.9,3.2-5.7,6.6-8.4,9.9v0v0
				c-0.4,0.5-0.8,1-1.2,1.5c-0.3,0.3-0.3,0.9-0.2,1.4c0,0.3,0,0.6,0,0.8c0.3-0.1,0.6-0.1,0.9-0.2c0.6-0.1,1.3-0.2,1.6-0.6
				c0.9-1.1,1.7-2.2,2.5-3.3c1-1.4,2-2.8,3.2-4.1c2-2.2,4.2-4.3,6.3-6.4c1.5-1.4,2.9-2.9,4.4-4.4c5.2-5.4,10.3-10.8,15.5-16.2v0v0
				l0,0v0c2.5-2.6,5-5.3,7.5-7.9l1.1-1.1c0.3-0.1,0.6-0.1,0.9-0.2c0.4-0.1,0.8-0.2,1.2-0.3c2.8-2.6,5.5-5.2,8.3-7.9
				c5.8-5.6,11.5-11.2,17.8-16.1c16.3-12.8,33.2-24.9,50.2-36.9c8.2-5.8,17-10.9,25.7-16.1c1.1-0.7,2.3-1.3,3.4-2
				c4.6-2.7,9.3-5.2,14-7.7c2.4-1.2,4.7-2.5,7.1-3.7c0.4-0.3,0.8-0.5,1.2-0.8c0.4-0.3,0.8-0.5,1.2-0.8c0,0.4,0,0.8-0.1,1.1v0
				c2.9-1.4,5.8-2.8,8.7-4.2v0c6-2.9,11.9-5.8,18-8.4c12.7-5.5,25.5-11,38.5-15.7c12.3-4.4,24.8-8.3,37.5-11.4
				c0.9-0.2,1.9-0.5,2.8-0.7c17.8-4.4,35.8-8.8,53.9-11.4c23.9-3.5,48-6,72.1-7.2c29.2-1.4,58.3,0.3,87.4,4.1
				c33.1,4.5,65.5,11.8,97.2,21.8c36.5,11.6,71.7,26.5,104.5,46.3c22.8,13.8,44.9,29,65.9,45.4c19.4,15.2,37.5,32.2,55.2,49.4
				c24.1,23.6,44.5,50.4,63,78.5c35.2,53.5,60.6,111.4,75.1,173.9c12.7,55,16.8,110.7,12.5,167.1c-3.1,40-10.4,79.1-22.2,117.4
				c-15.3,49.7-37.5,96.1-66.1,139.5c-22.4,34-48.2,65-77.5,93.1c-30.6,29.3-64.2,54.6-101.3,75.1c-2.6,1.4-5.2,2.9-7.8,4.4l0,0
				c-12.8,7.2-25.7,14.4-39.1,20.2c-23,10-46.5,18.7-69.9,27.3c-11.5,4.2-23.4,7.3-35.4,10c-10.2,2.3-20.4,4.2-30.7,6.1l0,0l0,0l0,0
				v0c-4.4,0.8-8.7,1.6-13.1,2.4c-1.5,0.3-2.9,0.5-4.4,0.8v0l0,0c-0.3,0-0.6,0.1-0.9,0.1c-0.4,0.1-0.9,0.1-1.3,0.2
				c0.9-0.3,1.9-0.7,2.8-1c0.9-0.3,1.9-0.7,2.8-1c0.1,0,0.1-0.1,0.2-0.2l0.1,0l0,0c0,0,0,0,0,0.1c-3.4,0.4-6.8,0.8-10.3,1.2
				c-9.3,1-18.7,2.1-28,3.4c-32.8,4.6-65.8,3.5-98.7,1.3c-34.9-2.3-69.6-8.5-103-18.5c-79.5-23.6-151.2-60.8-214.3-115.1
				c-28.6-24.6-55.1-51.3-79.6-80c-0.5-0.5-1.1-0.9-1.8-1.3c-0.3-0.1-0.5-0.3-0.8-0.4c0.1,0.3,0.2,0.7,0.2,1
				c0.2,0.7,0.3,1.5,0.7,2.1c1.7,2.5,3.3,5,4.9,7.5c4.1,6.4,8.2,12.8,13.2,18.5c12,13.9,24.7,27.4,37.8,40.5
				c6.9,6.9,14.2,13.3,21.5,19.7v0c3.2,2.8,6.3,5.6,9.5,8.4c-1.1-0.8-2.3-1.6-3.4-2.4v0c-3-2.1-6-4.2-8.7-6.7
				c-2.9-2.8-5.8-5.6-8.7-8.4v0c-15.9-15.3-31.8-30.6-47.2-46.5c-6.5-6.8-12.4-14.2-18.2-21.7c-2.6-3.3-5.2-6.6-7.8-9.9l-0.3,0.3
				c0.7,1.1,1.3,2.1,1.9,3.2v0v0v0c1.5,2.5,3,5,4.7,7.3c4.3,5.9,8.7,11.7,13,17.5l1.2,1.6c0.4,0.6,0.8,1.1,1.3,1.7l0.4,0.5
				c3.2,4.1,6.3,8.2,9.5,12.3c3.2,4.1,6.3,8.2,9.5,12.3c0.8,1,1.7,2,2.5,2.9v0c3.9,4.3,7.7,8.7,11.5,13c0.3,0.3,0.4,0.6,0.6,1v0
				c0.1,0.2,0.2,0.3,0.3,0.5c-0.1-0.1-0.3-0.2-0.4-0.2c-0.3-0.2-0.6-0.3-0.8-0.5c-0.9-0.8-1.9-1.6-2.9-2.3v0
				c-2.2-1.7-4.5-3.5-6.3-5.6c-11.9-13.4-23.8-26.9-35.3-40.7c-1.7-2.1-3.5-4.2-5.2-6.2v0l0,0c-8.7-10.3-17.3-20.5-24.6-31.7
				c-10.4-16-20-32.6-29.6-49.1v0v0c-3.4-5.8-6.7-11.6-10.1-17.4c-2.2-3.7-4.3-6.9-6.3-10.1c-2.2-3.4-4.4-6.8-6.7-10.8
				c-0.3-0.6-0.7-1.2-1.2-1.9v0v0v0v0c-0.6-1-1.4-2.1-2.4-3.9c0.8,1.7,1.6,3.9,2.3,5.6l0.1,0.3c1.6,3.9,3.1,7.8,4.6,11.8
				c2.8,7.2,5.6,14.3,8.6,21.4c2.2,5.4,4.8,10.6,7.7,15.7c8.8,15.5,17.7,30.9,27,46.2c3,4.9,6.4,9.4,9.9,14v0c1.5,2,3,4,4.5,6
				c0.2,0.4,0.3,0.9,0.5,1.3c0.2,0.4,0.3,0.9,0.5,1.3c0.6,0.6,1.1,1.2,1.7,1.9v0v0c1.6,1.8,3.3,3.6,4.8,5.4c1.4,1.6,2.7,3.2,4.1,4.8
				v0v0v0c4.3,5,8.6,10,13,15c0.8,0.9,1.6,1.8,2.5,2.7v0c1.5,1.6,3,3.2,4.3,4.9c1.9,2.5,3.8,5,5.7,7.6c2.7,3.7,5.4,7.4,8.4,10.9
				c6.7,7.9,13.4,15.9,20.7,23.2c10,10,20.2,20,31.1,29c10.1,8.2,20.6,16,31.2,23.7c4.5,3.3,9,6.6,13.4,9.9
				c50.8,38.5,115.2,62.7,176.6,79.4c65,17.9,125.8,20.1,192.5,15.7c68.3-4.6,135.5-17.4,198.4-44.6c11-4.7,21.9-9.8,32.7-14.8
				c6.8-3.1,13.5-6.4,20.1-9.9c4.9-2.5,9.7-5.3,14.4-8.2c8.4-5.1,16.7-10.2,25-15.5c4.6-3,9-6.1,13.3-9.4c3.5-2.6,6.9-5.4,10.4-8.1
				c2.4-1.9,4.8-3.8,7.2-5.7c3.4-2.6,6.8-5.2,10.2-7.8l0,0c6.7-5.1,13.5-10.3,20-15.7c7.3-6.1,14.1-12.7,20.8-19.4
				c11.6-11.7,23.2-23.5,34.4-35.6c7.7-8.3,14.9-17.1,22-25.9C1714.6,1661.7,1718.6,1656.4,1722.7,1651.1z M878.7,1733.9
				c0,0.1,0.1,0.2,0.1,0.3c0.1,0.4,0.3,0.8,0.5,1c2.5,1.9,5.1,3.8,7.7,5.7c2.6,1.9,24.2,16.5,24.2,16.5s-28.1-20.5-30.2-22.2
				c-0.5-0.4-1-0.6-1.6-0.9C879.3,1734.2,879,1734.1,878.7,1733.9z M1281.8,735.1c-0.2,0.2-0.3,0.4-0.5,0.6
				c-0.2,0.2-0.4,0.4-0.6,0.6c0.2,0.1,0.4,0.1,0.5,0.2c0.4,0.1,0.8,0.3,1.2,0.3c1.5,0.1,2.9,0.2,4.4,0.2c2.9,0.1,5.9,0.3,8.8,0.6
				c5.7,0.8,11.4,1.3,17.1,1.8c14.2,1.3,28.5,2.6,42.1,7.5c1.1,0.4,2.3,0.4,3.5,0.4c1,0,2,0,2.9,0.2c6.4,1.3,12.8,2.7,19.2,4.1l0,0
				c4.6,1,9.1,2,13.7,3c1.2,0.3,2.5,0.4,3.7,0.6c1.7,0.2,3.5,0.5,5.1,0.9c2.4,0.7,4.8,1.7,7.2,2.7c1,0.4,2.1,0.9,3.1,1.3
				c0.2-0.5,9.8,0,15.4,0.2c2.4,0.1,4,0.2,3.8,0.1c-10.1-2.7-30-6.8-46.3-10.1c-7.4-1.5-14.1-2.9-18.8-3.9
				c-15.6-3.4-31.3-6.4-47.1-8.6c-8.9-1.2-17.9-1.7-26.9-2.2C1289.6,735.6,1285.7,735.4,1281.8,735.1L1281.8,735.1z M1413.7,760.4
				l1.1,0.3v0c2.2,0.7,4.4,1.3,6.7,2c0.3,0.1,0.6,0.1,0.9,0.1c0.1,0,0.2,0,0.3,0c-0.1-0.1-0.1-0.2-0.2-0.2c-0.2-0.2-0.3-0.4-0.5-0.4
				C1419.2,761.5,1416.5,760.9,1413.7,760.4z M1255.8,722.4c-2.7-0.1-5.5-0.2-8.2-0.3c-3.6-0.1-7.3-0.3-10.9-0.4
				c-0.3,0-0.7,0.1-1,0.1c-0.2,0-0.3,0.1-0.5,0.1c0.2,0,0.4,0.1,0.5,0.2c0.3,0.1,0.7,0.2,1,0.2c4.1,0,8.2,0,12.3,0
				C1251.3,722.4,1253.6,722.4,1255.8,722.4z M1231.8,757.5c-0.9-0.1-1.8-0.1-2.7-0.1c-0.2,0-0.4,0.1-0.5,0.3
				c-0.1,0.1-0.2,0.2-0.3,0.2h0C1229.4,757.7,1230.6,757.6,1231.8,757.5z M1232.4,757.4c0.8,0,1.6-0.1,2.4-0.1
				c0-0.1-0.1-0.3-0.1-0.3C1233.9,757.2,1233.2,757.3,1232.4,757.4z M1795,1262.5v-1.2C1794.9,1261.7,1794.9,1262.1,1795,1262.5z
				 M1795,1262.5c0,0.5,0.1,1,0.2,1.4C1795.1,1263.5,1795,1263,1795,1262.5z M1795,1256.4L1795,1256.4
				C1794.9,1256.3,1794.9,1256.4,1795,1256.4z M1796.3,1269.5L1796.3,1269.5C1796.3,1269.6,1796.3,1269.6,1796.3,1269.5z
				 M808.1,923.3c-0.3,0.3-8.7,9.1-8.7,9.1c0.3-0.6,8.2-10.6,8.2-10.6s12.1-12.9,18.1-19.3c0.3-0.4,0.7-0.7,1.1-1.1v0
				c0.2-0.2,0.5-0.5,0.7-0.7c1.1-1.2,2.2-2.3,3.3-3.5c-0.2,0.4-0.5,0.9-0.7,1.4c-0.5,1.1-1.1,2.1-1.9,3c-4.5,4.8-9,9.7-13.5,14.5v0
				C812.6,918.5,810.4,920.9,808.1,923.3z M945.3,824.6c0.3,0,0.6,0,1,0c-0.6,0.5-1,0.8-1.3,1.1c-0.4,0.3-0.7,0.6-1,0.8
				c-3.6,2.3-7.2,4.6-10.7,6.9c-0.4,0.3-0.9,0.4-1.3,0.6c0.1-0.1,0.1-0.3,0.2-0.4c0.1-0.3,0.2-0.6,0.5-0.8c3.9-2.8,7.8-5.5,11.8-8.2
				C944.6,824.6,944.9,824.6,945.3,824.6z M903.2,828.6c-1.5,1-3,2-4.5,3.1c-0.4-0.2-0.7-0.3-0.9-0.3c0-0.1,0.1-0.3,0.1-0.4
				c0.1-0.3,0.2-0.6,0.4-0.7c2.8-1.9,5.6-3.8,8.4-5.6c0.2-0.2,0.6-0.1,0.8,0c0.1,0,0.2,0.6,0,0.7
				C906.2,826.6,904.7,827.6,903.2,828.6z M1791,1225.9c-0.2,0.2-0.3,0.4-0.2,0.6C1790.9,1226.3,1791,1226.1,1791,1225.9z
				 M843.8,884.9c0.2,0.1,0.4,0.2,0.7,0.3c-1.5,1.4-2.9,2.6-4.3,3.9v0l0,0c-1.1,1-2.1,1.9-3.2,2.9c0,0-0.3-0.2-0.5-0.3
				c1.1-1.1,2.3-2.3,3.4-3.5c1.1-1.2,2.3-2.3,3.4-3.5C843.4,884.7,843.5,884.8,843.8,884.9z M832.1,1720.9h0.8
				c1.1,1,9.1,8.1,17.6,15.6l0.1,0.1l0,0l0,0l0,0c9.8,8.7,20.3,17.9,21.6,19.1c30.4,27.2-1.8-0.9-1.8-0.9L839,1728
				c-2.3-2.1-4.5-4.2-6.8-6.3c-0.1-0.1-0.1-0.3-0.1-0.5C832.1,1721,832.1,1720.9,832.1,1720.9z M852.1,870.4
				c0.1,0.1,0.3,0.2,0.5,0.4c-1.2,1.1-2.4,2.1-3.5,3.1v0v0c-0.7,0.6-1.4,1.3-2.2,1.9l-0.4-0.5c1.8-1.7,3.5-3.4,5.3-5.1
				C851.9,870.2,852,870.2,852.1,870.4z M1209.4,759.2L1209.4,759.2c-1.5,0.1-3.1,0.3-4.6,0.4c-1.5-0.1-2.9-0.3-4.3-0.4
				c0.5-0.1,1.1-0.2,1.6-0.3c1.3-0.2,2.5-0.5,3.8-0.5c0.7,0,1.5,0.3,2.3,0.5C1208.6,758.9,1209,759.1,1209.4,759.2L1209.4,759.2z
				 M843.7,1714.6c0.1-0.1,0.2-0.3,0.4-0.5c0.7,0.8,1.3,1.6,2,2.3v0c0.7,0.8,1.3,1.6,2,2.3l26,25c-1.5-1.3-29.3-27.1-30.8-28.5
				C843.2,1715.3,843.4,1715,843.7,1714.6z M916.3,844.7c-0.6,0.4-1.2,0.9-1.8,1.3c-0.3-0.4-0.4-0.6-0.4-0.6l0,0
				c1.8-1.3,3.7-2.7,5.6-4c0,0,0.1,0.1,0.2,0.2c0.1,0.1,0.2,0.2,0.2,0.2C918.9,842.7,917.6,843.7,916.3,844.7L916.3,844.7
				L916.3,844.7z M1791.7,1229.4c0,0,0,0,0,0.1C1791.7,1229.4,1791.7,1229.4,1791.7,1229.4z M859.6,864.8
				C859.6,864.8,859.7,864.9,859.6,864.8l-0.1,0.2l-0.2,0.2v0c-0.7,0.6-1.3,1.1-1.9,1.6c-0.1,0-0.3-0.1-0.4-0.3c0,0-0.1-0.1-0.1-0.1
				c0,0-0.1-0.1-0.1-0.1c0.2-0.2,0.5-0.4,0.7-0.6v0v0c0.4-0.4,0.9-0.8,1.4-1.2c0.1,0,0.3,0.1,0.5,0.2l0.1,0.1
				C859.5,864.8,859.6,864.8,859.6,864.8z M1836.2,1313.3C1836.2,1313.3,1836.2,1313.4,1836.2,1313.3L1836.2,1313.3z M1815.6,1143.9
				L1815.6,1143.9C1815.6,1143.9,1815.6,1143.9,1815.6,1143.9C1815.5,1143.9,1815.5,1143.9,1815.6,1143.9
				C1815.6,1143.9,1815.6,1143.9,1815.6,1143.9z M1814.8,1141.4L1814.8,1141.4C1814.7,1141.4,1814.7,1141.4,1814.8,1141.4z
				 M892.8,835.6c-0.4,0.4-0.9,0.9-1.4,1.4c0-0.1,0-0.2-0.1-0.3c0-0.2-0.1-0.3,0-0.4c0.7-0.7,1.4-1.4,2.1-2.1c0,0,0.3,0.2,0.5,0.3
				C893.5,834.8,893.2,835.2,892.8,835.6z M1460.2,775.7c0.3,0.1,0.6,0.3,1,0.5c-0.5,0.1-0.9,0.1-1.2,0.2c-0.4,0.1-0.7,0.1-0.9,0.1
				c-0.4-0.1-0.7-0.4-1.1-0.7c-0.2-0.1-0.3-0.3-0.5-0.4c0.1,0,0.2,0,0.2,0c0,0,0.1,0,0.2,0h0c0.3-0.1,0.7-0.1,1-0.1
				C1459.5,775.3,1459.8,775.4,1460.2,775.7z M1212.6,722.5c0.2,0.1,0.4,0.3,0.7,0.5c-0.4,0-0.8,0-1.1,0c-0.6,0-1,0-1.4-0.1
				c-0.2-0.1-0.4-0.3-0.6-0.5c-0.1-0.1-0.2-0.2-0.3-0.3c0.2,0,0.3,0,0.5,0c0.4,0,0.8-0.1,1.3,0
				C1212,722.1,1212.2,722.2,1212.6,722.5z M943.6,805.5c0.1,0.1,0.2,0.1,0.4,0.2c-0.1,0.1-0.2,0.2-0.3,0.3c-0.5,0.4-0.8,0.7-1.2,1
				c0,0-0.2-0.2-0.4-0.4c-0.1-0.1-0.2-0.2-0.2-0.3c0.1-0.1,0.2-0.2,0.4-0.3c0.3-0.3,0.7-0.5,1.1-0.7
				C943.2,805.3,943.4,805.4,943.6,805.5z M1821.7,1170.3c0,0,0,0.1,0,0.1c0.1,0.2,0.1,0.5,0.1,0.8c0-0.2,0-0.4,0-0.6
				C1821.8,1170.5,1821.8,1170.4,1821.7,1170.3z M1295.4,1849c0.1,0.1,0.3,0.2,0.5,0.2c-0.1,0-0.2,0.1-0.3,0.1l0,0
				c-0.5,0.2-0.8,0.3-1.1,0.3c-0.1,0-0.3-0.1-0.4-0.2c-0.1,0-0.1-0.1-0.2-0.1c0.1,0,0.2-0.1,0.4-0.2c0.2-0.1,0.4-0.2,0.7-0.3
				C1295.1,1848.8,1295.2,1848.9,1295.4,1849z M759.2,1632.3l0.1,0.1c0.1,0.1,0.2,0.2,0.3,0.3l0,0l-0.1,0c-0.1,0.1-0.3,0.2-0.3,0.2
				c-0.3-0.4-0.7-0.8-1-1.2c0,0,0.2-0.3,0.3-0.4c0.1,0.1,0.1,0.2,0.2,0.3c0.1,0.1,0.1,0.2,0.2,0.2l0.1,0.2l0,0v0L759.2,1632.3
				L759.2,1632.3z M1367.1,733.5c0,0.1,0,0.1,0,0.2c-0.2,0-0.3,0-0.5,0c-0.3,0-0.6,0-1-0.1c-0.2-0.1-0.3-0.2-0.5-0.3
				c0,0-0.1-0.1-0.1-0.1c0,0,0,0-0.1,0c0,0,0,0-0.1,0c0.2,0,0.3,0,0.5,0c0.2,0,0.5,0,0.7,0c0.2,0,0.4,0.1,0.7,0.2
				c0.1,0,0.2,0.1,0.3,0.1C1367.1,733.4,1367.1,733.4,1367.1,733.5z M1180.7,739.9c0.2-0.1,0.4-0.2,0.6-0.3c0.3,0.1,0.5,0.1,0.6,0.2
				c-0.1,0.1-0.3,0.1-0.4,0.2c-0.3,0.1-0.6,0.3-0.8,0.4c-0.1,0.1-0.3,0-0.4-0.1c-0.1,0-0.1-0.1-0.2-0.1
				C1180.3,740.1,1180.5,740,1180.7,739.9z M1419.6,746.6L1419.6,746.6c0.2,0,0.5,0.1,0.8,0.2c-0.2,0.1-0.3,0.2-0.4,0.3
				c-0.3,0.2-0.5,0.3-0.6,0.3c-0.3-0.1-0.5-0.2-0.7-0.3v0c-0.1-0.1-0.2-0.1-0.3-0.2c0,0,0-0.1,0.1-0.1c0,0,0,0,0,0l0,0v0
				c0.1-0.1,0.2-0.2,0.2-0.2C1419,746.5,1419.2,746.5,1419.6,746.6z M1383.5,737.6c0.2,0,0.3-0.1,0.4-0.1c0.4,0.1,0.7,0.2,0.9,0.3
				c-0.1,0-0.2,0-0.3,0.1c-0.3,0.1-0.7,0.2-1,0.2c-0.2,0-0.3,0-0.5-0.1c-0.1,0-0.2-0.1-0.3-0.1
				C1383,737.7,1383.3,737.7,1383.5,737.6L1383.5,737.6z M826.2,1714.3L826.2,1714.3l0.2,0.1c0.1,0.1,0.2,0.2,0.3,0.2
				c-0.2,0.1,1.7,2.3,2.9,3.6v0c0.5,0.6,0.8,0.9,0.8,0.9c-0.3-0.2-5-4.6-5.2-4.9c0,0,0.4-0.5,0.4-0.5
				C825.8,1714,826,1714.1,826.2,1714.3z M1001.2,795.1c-0.2,0.4-0.3,0.8-0.4,0.8c-0.7-0.1-0.8-0.1-1-0.1c0.1-0.1,0.2-0.2,0.2-0.2
				l0-0.1v0c0.2-0.2,0.3-0.4,0.5-0.5c0.1-0.1,0.3,0,0.4,0l0.1,0C1001.1,795.1,1001.1,795.1,1001.2,795.1z M1462.4,764.7
				L1462.4,764.7L1462.4,764.7c0,0.1-0.1,0.3-0.1,0.4c-0.4-0.2-0.6-0.4-0.9-0.6l-0.2-0.1c-0.1-0.1-0.3-0.2-0.4-0.3
				c0.1,0,0.1,0,0.2-0.1c0.1-0.1,0.2-0.1,0.3-0.1c0.4,0.1,0.8,0.3,1.1,0.4C1462.5,764.4,1462.4,764.5,1462.4,764.7z M795.2,937.8
				c-0.1,0.2-0.2,0.3-0.4,0.5c0,0,0,0-0.1-0.1c-0.1-0.1-0.2-0.2-0.2-0.2c0.1-0.2,0.2-0.3,0.4-0.5L795.2,937.8z M1333.3,727.3
				L1333.3,727.3L1333.3,727.3L1333.3,727.3c0.1,0,0.2,0.1,0.2,0.1c-0.1,0-0.2,0.1-0.2,0.1c-0.2,0.1-0.3,0.1-0.4,0.1
				c-0.2-0.1-0.3-0.1-0.5-0.2c-0.1,0-0.2-0.1-0.2-0.1c0,0,0.1,0,0.1-0.1c0.1-0.1,0.2-0.1,0.3-0.1
				C1332.9,727.1,1333.1,727.2,1333.3,727.3z M1287.9,723.4c0.1,0,0.1,0.1,0.2,0.1c-0.1,0-0.2,0-0.3,0.1c-0.3,0.1-0.5,0.1-0.7,0.1
				c-0.1,0-0.2-0.1-0.3-0.2c0-0.1-0.1-0.1-0.2-0.1c0.2,0,0.3,0,0.5,0c0.2,0,0.3,0,0.4,0C1287.6,723.2,1287.7,723.3,1287.9,723.4z
				 M1176.5,717.8c0.1,0,0.3,0,0.4,0c-0.2,0.1-0.3,0.3-0.4,0.4c-0.2,0.2-0.3,0.3-0.5,0.4c-0.1,0.1-0.2,0-0.4,0c-0.1,0-0.1,0-0.2,0
				c0-0.1,0.1-0.1,0.1-0.2c0.1-0.2,0.2-0.3,0.3-0.4C1176,717.8,1176.2,717.8,1176.5,717.8z M837,887.4c0.1-0.1,0.2-0.3,0.4-0.5
				c0,0.1,0.1,0.1,0.1,0.2c0.1,0.1,0.1,0.2,0.1,0.2c-0.1,0.2-0.2,0.3-0.4,0.4c-0.1,0-0.2,0-0.3,0l0,0c0,0,0,0,0,0c0,0-0.1,0-0.1,0
				C836.8,887.7,836.9,887.6,837,887.4z M1191.4,1870.4l0.6,0C1191.8,1870.4,1191.6,1870.4,1191.4,1870.4z M1306.4,1867.2
				c-0.5,0.1-0.9,0.1-1.4,0.2c2-0.6,3.7-1.3,5.1-2.1c2.3-1.2,4.2-2.2,5.7-3c-4.5,1.5-11,3-18,2.9c-7.8-0.1-13.1,1.6-18.7,3.5v0
				c-2.5,0.8-5,1.6-7.8,2.3c-8.7,0.6-17.4,1-25.9,1.2c-2.1-0.2-4.4-0.5-6.8-0.9c-26.7-4.2-37.6-2.3-43.1-1.3
				c-1.5,0.3-2.6,0.5-3.5,0.4c9.2,0.7,21.2,1.5,34.3,1.9c-11.3-0.2-22.5-0.7-33.4-1.6c-109.7-9.4-200.4-55.6-286.1-109.1
				c44,36.4,149.4,98.4,286.1,109.1c13,1.1,26.4,1.7,40,1.7c6,0.1,12,0.2,18,0.2c4.5,0.3,8.4,0.2,11.8-0.2c17.1-0.5,32.8-2,42.4-5.1
				C1305.5,1867.3,1306,1867.3,1306.4,1867.2z M1318.8,1865.3c-4.1,0.7-8.3,1.3-12.3,1.9C1310.5,1866.6,1314.6,1866,1318.8,1865.3z
				 M1262.6,1872.5c-3.9,0.1-7.8,0.2-11.8,0.2c-1.4-0.1-2.9-0.2-4.5-0.3c8.1-0.2,16.2-0.6,24.5-1.2
				C1268.4,1871.7,1265.7,1872.2,1262.6,1872.5z M1371.3,1865.2c-105.4,26.2-180.9,18.7-265.3-0.9c3.7,0.3,9.5,1.4,17.2,2.9v0
				C1160.5,1874.5,1244.2,1890.9,1371.3,1865.2z M1113.2,1845.1c72.4,20.5,127.3,27.5,227.1,3.8c-108.4,24.3-180.3,7-212.3-0.7
				C1121.3,1846.6,1116.4,1845.4,1113.2,1845.1z M1113.9,1869.2c-106-23.6-170.2-64.1-237-119.4c3.3,2,8,5.7,14.4,10.9
				C921.1,1784.7,987.3,1838.1,1113.9,1869.2z"/>
		</g>
		<g transform="matrix(1,0,0,1,92.01799774169922,506.8599853515625)" class="st1">
			<path class="st5" d="M1039.7,1344.1l-81-168.1h-26.4v249.4h26.4v-195.2l70.9,145.3h20.2l70.5-145.3v195.2h26.4V1176h-26.4
				L1039.7,1344.1z"/>
		</g>
		<g transform="matrix(1,0,0,1,298.3320007324219,506.8599853515625)" class="st1">
			<path class="st5" d="M1062.5,1176l-90.7,249.4h27.8l18.1-51.8l10.5-30.6h-0.1l45.3-130.1l29.2,83.4l16.3,46.7h-0.1l10,28.7
				l18.7,53.7h27.8l-90.7-249.4H1062.5z"/>
		</g>
		<g transform="matrix(1,0,0,1,490.6990051269531,506.8599853515625)" class="st1">
			<path class="st5" d="M1169.8,1376.3L1040.8,1176h-26.4v249.4h26.4v-201l129.1,201h26.4V1176h-26.4V1376.3z"/>
		</g>
		<g transform="matrix(1,0,0,1,668.3079833984375,506.8599853515625)" class="st1">
			<path class="st5" d="M1050.4,1199.8h71.2v225.6h26.1v-225.6h71.2V1176h-168.5V1199.8z"/>
		</g>
		<g transform="matrix(1,0,0,1,842.2509765625,506.8599853515625)" class="st1">
			<path class="st5" d="M1230.3,1290.2c9.4-11.5,14.1-26.3,14.1-44.1c0-22.4-6.7-39.7-20.1-51.9c-13.3-12.1-31.7-18.2-55.1-18.2
				h-92.5v249.4h26.4v-109.5h60l56.3,109.5h30.4l-58.9-112C1207.8,1309.5,1220.9,1301.7,1230.3,1290.2z M1103.1,1293.1v-93.3h64
				c16.4,0,28.9,3.9,37.8,11.8c8.7,7.9,13.1,19.5,13.1,34.9c0,15-4.4,26.4-13.4,34.5c-8.9,8.1-21.4,12.1-37.6,12.1H1103.1z"/>
		</g>
		<g transform="matrix(1,0,0,1,1273.8699951171875,506.8599853515625)" class="st1">
			<path class="st5" d="M1233.9,1176h-85.3v249.4h85.3c26.5,0,47.6-7.7,63.1-23c15.5-15.3,23.3-39.5,23.3-72.4v-58.6
				c0-33.1-7.8-57.1-23.3-72.4C1281.4,1183.6,1260.4,1176,1233.9,1176z M1293.5,1331.5c0,46.7-19.7,70.1-59.2,70.1h-58.9v-201.7
				h58.9c19.1,0,33.7,5.8,43.9,17.3c10.2,11.5,15.4,29.9,15.4,55.3v59H1293.5z"/>
		</g>
		<g transform="matrix(1,0,0,1,1638.9000244140625,506.6700134277344)" class="st1">
			<path class="st5" d="M1357.7,1195.9c-15.5-15.3-36.5-23-62.7-23c-26.5,0-47.6,7.7-63.2,23c-15.6,15.3-23.5,39.5-23.5,72.4v64.7
				c0,33.1,7.8,57.1,23.3,72.4c15.5,15.3,36.6,23,63.1,23c26.3,0,47.2-7.7,62.9-23c15.6-15.3,23.5-39.5,23.5-72.4v-64.7
				C1381.1,1235.4,1373.3,1211.2,1357.7,1195.9z M1354.7,1334.5c0,46.5-19.9,69.8-59.7,69.8c-19.7,0-34.7-5.5-45-16.6
				c-10.3-11.1-15.4-28.8-15.4-53.1v-65.1c0-25.5,5.1-44,15.2-55.5c10.1-11.4,25.2-17.2,45.1-17.2c39.7,0,59.7,24.2,59.7,72.6v65.1
				H1354.7z"/>
		</g>
		<g transform="matrix(1,0,0,1,1457.47998046875,506.8599853515625)" class="st1">
			<path class="st5" d="M1366.5,1425.4l-90.7-249.4h-22.1l-90.7,249.4h27.8l15-42.8l13.6-39.6l10.4-30.2l34.7-99.9l45.6,130.1h-0.1
				l13.1,37.7l15.5,44.7H1366.5z"/>
		</g>
		<g transform="matrix(1,0,0,1,1018.47998046875,506.8599853515625)" class="st1">
			<path class="st5" d="M1294.1,1425.4l-90.7-249.4h-22.1l-90.7,249.4h27.8l17.6-50.6l11-31.8h-0.1l45.3-130.1l41.4,118.2l4.1,11.9
				l11,31.8l17.6,50.6H1294.1z"/>
		</g>
	</g>
	<g transform="matrix(0.05999999865889549,0,0,0.05999999865889549,225.00018310546875,121)" class="st31">
		<g transform="matrix(1,0,0,1,1248.93798828125,1561.5)" class="st1">
			<path class="st32" d="M4367.6,2439.2l-107.2,107.2c85.2,134,112,302,53.6,462.6c-97.4,272.7-399.3,416.5-674.5,319
				c-39-14.6-75.4-31.6-107.2-53.6L3189,3617.8l-299.5-302c-138.8,92.5-316.6,119.3-484.6,60.9
				c-282.5-102.2-428.5-411.5-326.3-691.5c14.6-43.8,36.5-82.9,60.9-119.3l-129-129l-24.3,41.4c-134,219.1-206.9,472.4-206.9,732.9
				c-2.5,776.7,630.7,1412.3,1407.4,1412.3h2.5c776.7,0,1407.5-630.7,1409.8-1407.5c0-258.2-70.6-511.4-204.6-732.9L4367.6,2439.2z"
				/>
		</g>
		<g transform="matrix(1,0,0,1,1247.875,726.375)" class="st1">
			<path class="st32" d="M2298.9,3559.3c-36.5,48.6-58.4,109.6-58.4,175.3c0,158.3,129,287.3,287.3,287.3
				c65.8,0,126.7-22,175.3-60.9L2298.9,3559.3z M3708.8,3936.6c46.3,31.6,99.9,48.6,160.8,48.6c158.3,0,287.3-129,287.3-287.3
				c0-58.4-17-114.5-48.6-160.8L3708.8,3936.6z M3194.9,4238.6L2031,3069.8l46.3-48.6c287.3-304.3,679.3-474.8,1100.6-474.8h2.5
				c426.1,0,835.2,182.6,1120.1,499.2l43.8,48.6L3194.9,4238.6z M2221,3069.8l974,976.5l961.8-957c-258.2-258-608.8-406.7-974-406.7
				h-2.5C2817.4,2682.6,2479,2819,2221,3069.8z"/>
		</g>
	</g>
	<g transform="matrix(3.700000047683716,0,0,3.700000047683716,226,122)" class="st33">
		<g transform="matrix(1,0,0,1,20,20)" class="st1">
			<path class="st34" d="M51.7,79.7c-12.8,0-23.3-10.5-23.3-23.4C28.5,43.5,38.9,33,51.8,33.1C64.6,33.2,75,43.6,75,56.6
				C74.9,69.3,64.5,79.7,51.7,79.7z"/>
		</g>
		<g transform="matrix(1,0,0,1,20.149999618530273,19.950000762939453)" class="st1">
			<path class="st5" d="M53.8,53.7l-0.7,3.7l6.6,0.9l-0.5,1.7l-6.5-0.9c-0.5,1.5-0.7,3.1-1.3,4.5c-0.6,1.6-1.2,3.3-1.9,4.8
				c-0.9,2-2.6,3.4-4.8,3.7c-1.3,0.2-2.7,0.1-3.7-0.7c-0.3-0.2-0.7-0.7-0.7-1c0-0.5,0.2-1,0.6-1.3c0.2-0.1,0.8,0,1.2,0.1
				c0.3,0.3,0.7,0.8,0.9,1.3c0.7,0.9,1.6,1,2.6,0.3c1-0.9,1.6-2.2,2-3.5c0.7-2.8,1.4-5.5,2-8.3v-0.5l-6.2-0.9l0.2-1.7l6.4,0.9
				l0.8-3.6l-6.6-1l0.2-1.9l6.9,0.9c0.2-0.7,0.4-1.3,0.6-1.9c0.6-2.1,1.2-4.2,2.6-6.1c1.4-1.9,3-3,5.5-2.9c1,0,2.1,0.3,2.8,1.2
				c0.1,0.1,0.4,0.3,0.4,0.6c0,0.5,0,1-0.4,1.4c-0.5,0.3-1,0.2-1.5-0.2c-0.3-0.3-0.6-0.7-0.9-1c-0.7-0.9-1.7-1-2.6-0.2
				c-0.6,0.6-1.2,1.4-1.5,2.2c-0.8,2.4-1.4,5-2.2,7.6l6.4,0.9l-0.5,1.7L53.8,53.7z"/>
		</g>
	</g>
	<g transform="matrix(6.833000183105469,0,0,6.833000183105469,215.86526489257812,110.54943084716797)" class="st35">
		<g transform="matrix(1,0,0,1,12.314000129699707,12.314000129699707)" class="st1">
			<path class="st36" d="M35.4,37.9c-0.9,0.9-2.4,0.9-3.3,0c-0.9-0.9-0.9-2.4,0-3.3c0.9-0.9,2.4-0.9,3.3,0
				C36.3,35.5,36.3,37,35.4,37.9z M25.5,42.9l3.3-3.3c0.5-0.5,1.2-0.5,1.6,0c0.5,0.5,0.5,1.2,0,1.6l-3.3,3.3c-0.5,0.5-1.2,0.5-1.6,0
				C25.1,44.1,25.1,43.3,25.5,42.9z M38.7,39.6l3.3,3.3c0.5,0.5,0.5,1.2,0,1.6c-0.5,0.5-1.2,0.5-1.6,0l-3.3-3.3
				c-0.5-0.5-0.5-1.2,0-1.6C37.5,39.1,38.2,39.1,38.7,39.6z M23.9,26.4c-0.9,0.9-2.4,0.9-3.3,0c-0.9-0.9-0.9-2.4,0-3.3
				c0.9-0.9,2.4-0.9,3.3,0C24.8,24,24.8,25.5,23.9,26.4z M25.5,19.8l3.3-3.3c0.5-0.5,1.2-0.5,1.6,0s0.5,1.2,0,1.6l-3.3,3.3
				c-0.5,0.5-1.2,0.5-1.6,0C25.1,21,25.1,20.3,25.5,19.8z M27.2,28l3.3,3.3c0.5,0.5,0.5,1.2,0,1.6c-0.5,0.5-1.2,0.5-1.6,0l-3.3-3.3
				c-0.5-0.5-0.5-1.2,0-1.6C26,27.6,26.7,27.6,27.2,28z M15.6,16.5l3.3,3.3c0.5,0.5,0.5,1.2,0,1.6c-0.5,0.5-1.2,0.5-1.6,0L14,18.2
				c-0.5-0.5-0.5-1.2,0-1.6S15.2,16.1,15.6,16.5z"/>
		</g>
	</g>
	<g transform="matrix(0.6499999761581421,0,0,0.6499999761581421,99.15000915527344,101.33000183105469)" class="st37">
		<g transform="matrix(1,0,0,1,322.25,133.85000610351562)" class="st1">
			<path class="st5" d="M263,319.5v-0.2c0-17.9,14.3-32.9,33.5-32.9c19.3,0,33.4,14.7,33.4,32.6v0.2c0,17.8-14.3,32.7-33.7,32.7
				C277.2,352,263,337.3,263,319.5z M315.6,319.5v-0.2c0-11.1-7.9-20.3-19.3-20.3c-11.5,0-19,9.1-19,20v0.2c0,11,7.9,20.2,19.2,20.2
				C308.3,339.3,315.6,330.3,315.6,319.5z"/>
		</g>
		<g transform="matrix(1,0,0,1,385.70001220703125,133.9499969482422)" class="st1">
			<path class="st5" d="M277.8,319.4v-0.2c0-17.8,13.9-32.9,32.7-32.9c11.8,0,19.2,4.4,25.2,10.8l-9.1,9.7
				c-4.4-4.7-9.1-7.8-16.2-7.8c-10.5,0-18.2,9.1-18.2,20v0.2c0,11.2,7.7,20.2,18.8,20.2c6.8,0,11.8-3.1,16.3-7.7l8.7,8.6
				c-6.2,6.9-13.4,11.8-25.7,11.8C291.5,351.9,277.8,337.2,277.8,319.4z"/>
		</g>
		<g transform="matrix(1,0,0,1,502.1499938964844,133.85000610351562)" class="st1">
			<path class="st5" d="M295.7,319.4v-0.2c0-17.9,12.7-32.7,30.8-32.7c20,0,30.2,15.7,30.2,33.8c0,1.3-0.1,2.6-0.2,4.1h-46.2
				c1.5,10.3,8.9,16,18.1,16c7,0,12-2.6,17-7.5l8.5,7.5c-5.9,7.1-14.2,11.8-25.7,11.8C309.6,352,295.7,338.7,295.7,319.4z
				 M342.1,314.7c-0.9-9.3-6.4-16.5-16-16.5c-8.9,0-15,6.8-16.3,16.5H342.1z"/>
		</g>
		<g transform="matrix(1,0,0,1,565.2000122070312,112.0999984741211)" class="st1">
			<path class="st5" d="M330.8,309.4h11.4v12.3h-11.4V309.4z"/>
		</g>
		<g transform="matrix(1,0,0,1,553.0999755859375,126.80000305175781)" class="st1">
			<path class="st5" d="M337.4,337.9v-26.2v-17.8v-16.4H323v17.2h-7.9v12.3h7.9v33.1c0,13.9,7.5,18.4,18.1,18.4
				c5.5,0,9.4-1.2,12.9-3.3v-11.8c-2.9,1.4-5.7,2.1-9,2.1C340.2,345.7,337.4,343.5,337.4,337.9z"/>
		</g>
		<g transform="matrix(1,0,0,1,446.04998779296875,133.5)" class="st1">
			<path class="st5" d="M292.6,350.5v-62.6l12.5-0.1v22l18.9-22.1h15.5l-34.2,41.2l-0.1,21.7h-12.5V350.5z M327,350.5l-12.2-17.6
				l7.3-9.3c0,0,19.1,26.7,19.1,26.9H327z"/>
		</g>
		<g transform="matrix(1,0,0,1,446.1000061035156,133.5)" class="st1">
			<path class="st5" d="M341.7,351h-15.1L314,332.7l8-10.3l0.5,0.6c19.2,26.9,19.2,27,19.2,27.3V351z M305.6,351h-13.5v-63.7
				l13.6-0.1v21.1l18.1-21.1h17L305.7,329L305.6,351z"/>
		</g>
		<g transform="matrix(1,0,0,1,260.25,154.89999389648438)" class="st1">
			<path class="st5" d="M304.1,275.7c-3.5,2.8-7.1,5.7-10.5,8.7l-0.1,0.1c2.7,3.5,4.2,8,4.2,12.9v0.2c0,4.9-1.5,9.3-4.2,12.8
				c-0.1,0.1-0.2,0.2-0.2,0.3c-3.8,4.2-8.5,6.3-13.9,6.3l-19.2-0.1v52.5h11.3v-40.1c0,0,4.7,0.7,7.1,0.7c19.5,0,33.7-14.9,33.7-32.7
				v-0.2C312.2,289,309.1,281.5,304.1,275.7z"/>
		</g>
		<g transform="matrix(1,0,0,1,176.0500030517578,143.7989959716797)" class="st1">
			<path class="st5" d="M288.1,322.1c0,31.8-20.2,58.9-48.5,69.3v16.8c37.7-11.1,65.4-46,65.4-87.4s-27.6-76.3-65.4-87.4v19.3
				C267.9,263.2,288.1,290.3,288.1,322.1z"/>
		</g>
		<g transform="matrix(1,0,0,1,76.0999984741211,143.85000610351562)" class="st1">
			<path class="st5" d="M223,320.9c0,41.5,27.7,76.4,65.7,87.4v-16.9C260.4,381,240.3,354,240.3,322c0-31.8,20.2-58.9,48.5-69.3
				v-19.3C250.7,244.5,223,279.4,223,320.9z"/>
		</g>
		<g transform="matrix(1,0,0,1,111.44999694824219,220.5500030517578)" class="st1">
			<path class="st5" d="M253.4,300.2v67H270v-67.4c-2.3,2-5.4,3.1-8.6,3.1C258.4,302.9,255.6,301.8,253.4,300.2z"/>
		</g>
		<g transform="matrix(1,0,0,1,144.64999389648438,155.89999389648438)" class="st1">
			<path class="st5" d="M285.3,282.5c-5.2,4.2-10.5,8.5-15.5,12.9c-0.1,0-0.1,0.1-0.2,0.1c4,5.2,6.3,11.9,6.3,19.1v0.3
				c0,7.2-2.2,13.9-6.2,19c-0.1,0.1-0.2,0.3-0.3,0.5c-5.7,6.3-12.6,9.4-20.6,9.4c0,0-5.5,0-11.6-0.1c2.8,2.4,4.7,6.2,4.7,10.1
				c0,3.3-1.2,6.2-3,8.5c2.3,0.2,6.3,0.7,8.6,0.7c28.8,0,50-22,50-48.6v-0.3C297.2,302.2,292.7,291,285.3,282.5z"/>
		</g>
		<g transform="matrix(1,0,0,1,140.85000610351562,67.05000305175781)" class="st1">
			<path class="st5" d="M274.9,341.4v-67h-16.7v67.4c2.3-2,5.4-3.1,8.6-3.1C269.9,338.9,272.7,339.8,274.9,341.4z"/>
		</g>
		<g transform="matrix(1,0,0,1,107.55000305175781,131.6999969482422)" class="st1">
			<path class="st5" d="M242.9,359.1c5.2-4.2,10.5-8.5,15.5-12.9c0.1,0,0.1-0.1,0.2-0.1c-4-5.2-6.3-11.9-6.3-19.1v-0.3
				c0-7.2,2.2-13.9,6.2-19c0.1-0.1,0.2-0.3,0.3-0.5c5.7-6.3,12.6-9.4,20.6-9.4c0,0,5.5,0,11.6,0.1c-2.8-2.4-4.7-6.2-4.7-10.1
				c0-3.3,1.2-6.2,3-8.5c-2.3-0.2-6.3-0.7-8.6-0.7c-28.8,0-50,22-50,48.6v0.3C231.1,339.6,235.5,350.6,242.9,359.1z"/>
		</g>
		<g transform="matrix(1,0,0,1,141.10000610351562,104.9000015258789)" class="st1">
			<path class="st5" d="M266.6,324.1c3.4,0,6.3-1.7,8-4.3c1-1.5,1.6-3.4,1.6-5.4c0-2-0.6-3.8-1.6-5.4c-1.7-2.6-4.7-4.3-8-4.3
				c-5.4,0-9.7,4.3-9.7,9.7S261.3,324.1,266.6,324.1z"/>
		</g>
		<g transform="matrix(1,0,0,1,111.0999984741211,183)" class="st1">
			<path class="st5" d="M261.6,317.6c-3.4,0-6.3,1.7-8,4.3c-1,1.5-1.6,3.4-1.6,5.4c0,2,0.6,3.8,1.6,5.4c1.7,2.6,4.7,4.3,8,4.3
				c5.4,0,9.7-4.3,9.7-9.7C271.3,321.9,267,317.6,261.6,317.6z"/>
		</g>
	</g>
</g>
</svg>
